<mxfile host="app.diagrams.net" modified="2023-04-17T16:22:29.166Z" agent="Mozilla/5.0 (Windows NT 10.0; Win64; x64) AppleWebKit/537.36 (KHTML, like Gecko) Chrome/112.0.0.0 Safari/537.36 Edg/112.0.1722.39" etag="Oj-AeYc0HmpttC70JqXk" version="21.1.4" type="github">
  <diagram name="第 1 页" id="NzfJFBbk3EMyc_PRfZPB">
    <mxGraphModel dx="1434" dy="764" grid="1" gridSize="10" guides="1" tooltips="1" connect="1" arrows="1" fold="1" page="1" pageScale="1" pageWidth="827" pageHeight="1169" math="0" shadow="0">
      <root>
        <mxCell id="0" />
        <mxCell id="1" parent="0" />
        <mxCell id="lOUvYRW9QEjWBwEghRtw-23" value="" style="rounded=0;whiteSpace=wrap;html=1;" vertex="1" parent="1">
          <mxGeometry x="40" y="40" width="870" height="370" as="geometry" />
        </mxCell>
        <mxCell id="lOUvYRW9QEjWBwEghRtw-1" value="&lt;font style=&quot;font-size: 16px;&quot;&gt;Serial GC&lt;/font&gt;" style="rounded=1;whiteSpace=wrap;html=1;fillColor=#cce5ff;strokeColor=#36393d;" vertex="1" parent="1">
          <mxGeometry x="80" y="120" width="120" height="60" as="geometry" />
        </mxCell>
        <mxCell id="lOUvYRW9QEjWBwEghRtw-24" style="rounded=0;orthogonalLoop=1;jettySize=auto;html=1;exitX=0.5;exitY=1;exitDx=0;exitDy=0;endArrow=none;endFill=0;entryX=0;entryY=0.5;entryDx=0;entryDy=0;strokeWidth=2;" edge="1" parent="1" source="lOUvYRW9QEjWBwEghRtw-2" target="lOUvYRW9QEjWBwEghRtw-4">
          <mxGeometry relative="1" as="geometry" />
        </mxCell>
        <mxCell id="lOUvYRW9QEjWBwEghRtw-28" style="rounded=0;orthogonalLoop=1;jettySize=auto;html=1;exitX=0.5;exitY=1;exitDx=0;exitDy=0;endArrow=none;endFill=0;dashed=1;strokeColor=#FF3333;strokeWidth=2;" edge="1" parent="1" source="lOUvYRW9QEjWBwEghRtw-2" target="lOUvYRW9QEjWBwEghRtw-6">
          <mxGeometry relative="1" as="geometry" />
        </mxCell>
        <mxCell id="lOUvYRW9QEjWBwEghRtw-2" value="&lt;font style=&quot;font-size: 16px;&quot;&gt;Serial GC&lt;/font&gt;" style="rounded=1;whiteSpace=wrap;html=1;fillColor=#ffff88;strokeColor=#36393d;" vertex="1" parent="1">
          <mxGeometry x="80" y="120" width="120" height="60" as="geometry" />
        </mxCell>
        <mxCell id="lOUvYRW9QEjWBwEghRtw-25" style="rounded=0;orthogonalLoop=1;jettySize=auto;html=1;entryX=1;entryY=0.5;entryDx=0;entryDy=0;endArrow=none;endFill=0;exitX=0.5;exitY=1;exitDx=0;exitDy=0;strokeWidth=2;" edge="1" parent="1" source="lOUvYRW9QEjWBwEghRtw-3" target="lOUvYRW9QEjWBwEghRtw-6">
          <mxGeometry relative="1" as="geometry" />
        </mxCell>
        <mxCell id="lOUvYRW9QEjWBwEghRtw-29" style="rounded=0;orthogonalLoop=1;jettySize=auto;html=1;exitX=0.5;exitY=1;exitDx=0;exitDy=0;endArrow=none;endFill=0;strokeColor=#FF3333;dashed=1;strokeWidth=2;" edge="1" parent="1" source="lOUvYRW9QEjWBwEghRtw-3" target="lOUvYRW9QEjWBwEghRtw-4">
          <mxGeometry relative="1" as="geometry" />
        </mxCell>
        <mxCell id="lOUvYRW9QEjWBwEghRtw-3" value="&lt;font style=&quot;font-size: 16px;&quot;&gt;ParNew GC&lt;/font&gt;" style="rounded=1;whiteSpace=wrap;html=1;fillColor=#cce5ff;strokeColor=#36393d;" vertex="1" parent="1">
          <mxGeometry x="280" y="120" width="120" height="60" as="geometry" />
        </mxCell>
        <mxCell id="lOUvYRW9QEjWBwEghRtw-4" value="&lt;font style=&quot;font-size: 16px;&quot;&gt;Serial Old GC&lt;/font&gt;" style="rounded=1;whiteSpace=wrap;html=1;fillColor=#ffff88;strokeColor=#36393d;" vertex="1" parent="1">
          <mxGeometry x="280" y="260" width="120" height="60" as="geometry" />
        </mxCell>
        <mxCell id="lOUvYRW9QEjWBwEghRtw-31" style="rounded=0;orthogonalLoop=1;jettySize=auto;html=1;exitX=1;exitY=0.5;exitDx=0;exitDy=0;endArrow=none;endFill=0;strokeWidth=2;" edge="1" parent="1" source="lOUvYRW9QEjWBwEghRtw-6" target="lOUvYRW9QEjWBwEghRtw-4">
          <mxGeometry relative="1" as="geometry" />
        </mxCell>
        <mxCell id="lOUvYRW9QEjWBwEghRtw-6" value="&lt;font style=&quot;font-size: 16px;&quot;&gt;CMS GC&lt;/font&gt;" style="rounded=1;whiteSpace=wrap;html=1;fillColor=#ffcc99;strokeColor=#36393d;" vertex="1" parent="1">
          <mxGeometry x="80" y="260" width="120" height="60" as="geometry" />
        </mxCell>
        <mxCell id="lOUvYRW9QEjWBwEghRtw-7" value="&lt;font style=&quot;font-size: 16px;&quot;&gt;Parallel Old GC&lt;/font&gt;" style="rounded=1;whiteSpace=wrap;html=1;fillColor=#cce5ff;strokeColor=#36393d;" vertex="1" parent="1">
          <mxGeometry x="480" y="260" width="140" height="60" as="geometry" />
        </mxCell>
        <mxCell id="lOUvYRW9QEjWBwEghRtw-27" style="rounded=0;orthogonalLoop=1;jettySize=auto;html=1;endArrow=none;endFill=0;strokeWidth=2;" edge="1" parent="1" source="lOUvYRW9QEjWBwEghRtw-8" target="lOUvYRW9QEjWBwEghRtw-7">
          <mxGeometry relative="1" as="geometry" />
        </mxCell>
        <mxCell id="lOUvYRW9QEjWBwEghRtw-30" style="rounded=0;orthogonalLoop=1;jettySize=auto;html=1;entryX=1;entryY=0.5;entryDx=0;entryDy=0;dashed=1;strokeWidth=2;endArrow=none;endFill=0;strokeColor=#009900;exitX=0.5;exitY=1;exitDx=0;exitDy=0;" edge="1" parent="1" source="lOUvYRW9QEjWBwEghRtw-8" target="lOUvYRW9QEjWBwEghRtw-4">
          <mxGeometry relative="1" as="geometry" />
        </mxCell>
        <mxCell id="lOUvYRW9QEjWBwEghRtw-8" value="&lt;font style=&quot;font-size: 16px;&quot;&gt;Parallel Scavenge GC&lt;/font&gt;" style="rounded=1;whiteSpace=wrap;html=1;fillColor=#cce5ff;strokeColor=#36393d;" vertex="1" parent="1">
          <mxGeometry x="480" y="120" width="140" height="60" as="geometry" />
        </mxCell>
        <mxCell id="lOUvYRW9QEjWBwEghRtw-10" value="" style="endArrow=none;html=1;rounded=0;dashed=1;" edge="1" parent="1" source="lOUvYRW9QEjWBwEghRtw-5">
          <mxGeometry width="50" height="50" relative="1" as="geometry">
            <mxPoint x="20" y="220" as="sourcePoint" />
            <mxPoint x="910" y="220" as="targetPoint" />
          </mxGeometry>
        </mxCell>
        <mxCell id="lOUvYRW9QEjWBwEghRtw-11" value="&lt;font color=&quot;#ff3333&quot; face=&quot;Comic Sans MS&quot; style=&quot;font-size: 16px;&quot;&gt;&lt;b style=&quot;&quot;&gt;Old Generation&lt;/b&gt;&lt;/font&gt;" style="text;html=1;align=center;verticalAlign=middle;resizable=0;points=[];autosize=1;strokeColor=none;fillColor=none;" vertex="1" parent="1">
          <mxGeometry x="344" y="365" width="140" height="30" as="geometry" />
        </mxCell>
        <mxCell id="lOUvYRW9QEjWBwEghRtw-12" value="&lt;b style=&quot;border-color: var(--border-color); font-size: 16px;&quot;&gt;&lt;font color=&quot;#ff3333&quot; face=&quot;Comic Sans MS&quot;&gt;Young Generation&lt;/font&gt;&lt;/b&gt;" style="text;html=1;align=center;verticalAlign=middle;resizable=0;points=[];autosize=1;strokeColor=none;fillColor=none;" vertex="1" parent="1">
          <mxGeometry x="334" y="50" width="160" height="30" as="geometry" />
        </mxCell>
        <mxCell id="lOUvYRW9QEjWBwEghRtw-13" value="&lt;font style=&quot;font-size: 13px;&quot;&gt;单线程、串行、复制算法&lt;/font&gt;" style="text;html=1;align=center;verticalAlign=middle;resizable=0;points=[];autosize=1;strokeColor=none;fillColor=none;" vertex="1" parent="1">
          <mxGeometry x="55" y="90" width="170" height="30" as="geometry" />
        </mxCell>
        <mxCell id="lOUvYRW9QEjWBwEghRtw-14" value="&lt;font style=&quot;font-size: 13px;&quot;&gt;多线程、并行、复制算法&lt;/font&gt;" style="text;html=1;align=center;verticalAlign=middle;resizable=0;points=[];autosize=1;strokeColor=none;fillColor=none;" vertex="1" parent="1">
          <mxGeometry x="255" y="90" width="170" height="30" as="geometry" />
        </mxCell>
        <mxCell id="lOUvYRW9QEjWBwEghRtw-15" value="&lt;font style=&quot;font-size: 13px;&quot;&gt;多线程、并行、复制算法&lt;/font&gt;" style="text;html=1;align=center;verticalAlign=middle;resizable=0;points=[];autosize=1;strokeColor=none;fillColor=none;" vertex="1" parent="1">
          <mxGeometry x="465" y="90" width="170" height="30" as="geometry" />
        </mxCell>
        <mxCell id="lOUvYRW9QEjWBwEghRtw-16" value="&lt;font style=&quot;font-size: 13px;&quot;&gt;多线程、并行、标记-整理算法&lt;/font&gt;" style="text;html=1;align=center;verticalAlign=middle;resizable=0;points=[];autosize=1;strokeColor=none;fillColor=none;" vertex="1" parent="1">
          <mxGeometry x="465" y="320" width="200" height="30" as="geometry" />
        </mxCell>
        <mxCell id="lOUvYRW9QEjWBwEghRtw-17" value="&lt;font style=&quot;font-size: 13px;&quot;&gt;单线程、串行、标记-整理算法&lt;/font&gt;" style="text;html=1;align=center;verticalAlign=middle;resizable=0;points=[];autosize=1;strokeColor=none;fillColor=none;" vertex="1" parent="1">
          <mxGeometry x="255" y="320" width="200" height="30" as="geometry" />
        </mxCell>
        <mxCell id="lOUvYRW9QEjWBwEghRtw-18" value="&lt;font style=&quot;font-size: 13px;&quot;&gt;多线程、并发、标记-清除算法&lt;/font&gt;" style="text;html=1;align=center;verticalAlign=middle;resizable=0;points=[];autosize=1;strokeColor=none;fillColor=none;" vertex="1" parent="1">
          <mxGeometry x="55" y="320" width="200" height="30" as="geometry" />
        </mxCell>
        <mxCell id="lOUvYRW9QEjWBwEghRtw-19" value="" style="endArrow=none;html=1;rounded=0;dashed=1;" edge="1" parent="1" target="lOUvYRW9QEjWBwEghRtw-5">
          <mxGeometry width="50" height="50" relative="1" as="geometry">
            <mxPoint x="40" y="220" as="sourcePoint" />
            <mxPoint x="910" y="220" as="targetPoint" />
            <Array as="points">
              <mxPoint x="370" y="220" />
            </Array>
          </mxGeometry>
        </mxCell>
        <mxCell id="lOUvYRW9QEjWBwEghRtw-5" value="&lt;font style=&quot;font-size: 16px;&quot;&gt;G1 GC&lt;/font&gt;" style="rounded=1;whiteSpace=wrap;html=1;fillColor=#ffcc99;strokeColor=#36393d;" vertex="1" parent="1">
          <mxGeometry x="720" y="190" width="120" height="60" as="geometry" />
        </mxCell>
        <mxCell id="lOUvYRW9QEjWBwEghRtw-20" value="&lt;font style=&quot;font-size: 13px;&quot;&gt;多线程、并发、标记-整理 + 复制算法&lt;/font&gt;" style="text;html=1;align=center;verticalAlign=middle;resizable=0;points=[];autosize=1;strokeColor=none;fillColor=none;" vertex="1" parent="1">
          <mxGeometry x="665" y="250" width="240" height="30" as="geometry" />
        </mxCell>
      </root>
    </mxGraphModel>
  </diagram>
</mxfile>
